<svg viewBox="0 0 150 140" xmlns="http://www.w3.org/2000/svg" fill="none"
stroke="currentColor">
<path d="M42.2761 138.038H100.118C100.915 138.038 101.58 137.382 101.58 136.576V133.146C101.58 130.447 99.3707 128.246 96.6798 128.246H45.7059C43.0152 128.246 40.8145 130.447 40.8145 133.146V136.576C40.8145 137.382 41.4704 138.038 42.2761 138.038Z" stroke="currentColor" stroke-width="3.5" stroke-miterlimit="10" stroke-linecap="round" stroke-linejoin="round"/>
<path d="M51.7344 128.246L55.6461 115.166M86.7468 115.166L90.65 128.246" stroke="currentColor" stroke-width="3.5" stroke-miterlimit="10" stroke-linecap="round" stroke-linejoin="round"/>
<path d="M18.1582 104.054H112.823" stroke="currentColor" stroke-width="3.5" stroke-miterlimit="10" stroke-linecap="round" stroke-linejoin="round"/>
<path d="M2.19727 76.6397C2.19727 78.7658 3.93281 80.5095 6.05889 80.5095H93.1664C95.2925 80.5095 97.028 78.7658 97.028 76.6397V5.82388C97.028 3.69781 95.2925 1.96226 93.1664 1.96226H6.05889C3.93281 1.96226 2.19727 3.69781 2.19727 5.82388V76.6397Z" stroke="currentColor" stroke-width="3.5" stroke-miterlimit="10" stroke-linecap="round" stroke-linejoin="round"/>
<path d="M66.126 115.166H22.161C19.9603 115.166 18.1582 113.364 18.1582 111.163V80.5096M112.823 115.166H76.2328M97.0277 41.5931H120.231C122.431 41.5931 124.234 43.3951 124.234 45.5959V85.6005" stroke="currentColor" stroke-width="3.5" stroke-miterlimit="10" stroke-linecap="round" stroke-linejoin="round"/>
<path d="M54.6911 22.4585H97.0283M2.19727 22.4585H44.5427" stroke="currentColor" stroke-width="3.5" stroke-miterlimit="10" stroke-linecap="round" stroke-linejoin="round"/>
<path d="M85.4102 12.2021V12.2188" stroke="currentColor" stroke-width="3.5" stroke-miterlimit="10" stroke-linecap="round" stroke-linejoin="round"/>
<path d="M74.5469 12.2021V12.2188" stroke="currentColor" stroke-width="3.5" stroke-miterlimit="10" stroke-linecap="round" stroke-linejoin="round"/>
<path d="M63.6855 12.2021V12.2188" stroke="currentColor" stroke-width="3.5" stroke-miterlimit="10" stroke-linecap="round" stroke-linejoin="round"/>
<path d="M13.8164 12.2021L36.3056 12.2188" stroke="currentColor" stroke-width="3.5" stroke-miterlimit="10" stroke-linecap="round" stroke-linejoin="round"/>
<path d="M84.2312 33.7781H51.6936C50.8797 33.7781 50.207 34.4426 50.207 35.2646V45.0729C50.207 45.8947 50.8797 46.5674 51.6936 46.5674H84.2312C85.0451 46.5674 85.7178 45.8947 85.7178 45.0729V35.2646C85.7178 34.4426 85.0451 33.7781 84.2312 33.7781Z" stroke="currentColor" stroke-width="3.5" stroke-miterlimit="10" stroke-linecap="round" stroke-linejoin="round"/>
<path d="M85.7175 58.7842H50.207" stroke="currentColor" stroke-width="3.5" stroke-miterlimit="10" stroke-linecap="round" stroke-linejoin="round"/>
<path d="M67.5388 69.1902H85.7175M50.207 69.1902H55.6299" stroke="currentColor" stroke-width="3.5" stroke-miterlimit="10" stroke-linecap="round" stroke-linejoin="round"/>
<path d="M130.313 129.251H130.238" stroke="currentColor" stroke-width="3.5" stroke-miterlimit="10" stroke-linecap="round" stroke-linejoin="round"/>
<path d="M116.869 138.038H143.751C145.976 138.038 147.804 136.219 147.804 133.985V89.645C147.804 87.4193 145.976 85.6006 143.751 85.6006H116.869C114.643 85.6006 112.824 87.4193 112.824 89.645V133.985C112.824 136.219 114.643 138.038 116.869 138.038Z" stroke="currentColor" stroke-width="3.5" stroke-miterlimit="10" stroke-linecap="round" stroke-linejoin="round"/>
<path d="M15.0028 33.7782H37.4006C38.2227 33.7782 38.8953 34.4426 38.8953 35.2647V67.6955C38.8953 68.5175 38.2227 69.1902 37.4006 69.1902H15.0028C14.1808 69.1902 13.5078 68.5175 13.5078 67.6955V35.2647C13.5078 34.4426 14.1808 33.7782 15.0028 33.7782Z" stroke="currentColor" stroke-width="3.5" stroke-miterlimit="10" stroke-linecap="round" stroke-linejoin="round"/>
</svg>
